<?xml version="1.0" standalone="no"?><svg xmlns="http://www.w3.org/2000/svg" viewBox="0 0 1440 320"><path fill="black" fill-opacity="1" d="M0,0L30,5.3C60,11,120,21,180,26.7C240,32,300,32,360,58.7C420,85,480,139,540,133.3C600,128,660,64,720,48C780,32,840,64,900,64C960,64,1020,32,1080,26.7C1140,21,1200,43,1260,42.7C1320,43,1380,21,1410,10.7L1440,0L1440,320L1410,320C1380,320,1320,320,1260,320C1200,320,1140,320,1080,320C1020,320,960,320,900,320C840,320,780,320,720,320C660,320,600,320,540,320C480,320,420,320,360,320C300,320,240,320,180,320C120,320,60,320,30,320L0,320Z"></path></svg>